<svg width="30" height="31" viewBox="0 0 30 31" fill="none" xmlns="http://www.w3.org/2000/svg">
<path d="M15.3022 12.3633V18.2152H23.4344C23.0773 20.0971 22.0057 21.6906 20.3985 22.7621L25.3025 26.5672C28.1598 23.9298 29.8082 20.056 29.8082 15.4542C29.8082 14.3828 29.7121 13.3524 29.5335 12.3634L15.3022 12.3633Z" fill="#4285F4"/>
<path d="M6.83359 17.9863L5.72755 18.833L1.8125 21.8825C4.29885 26.814 9.39483 30.2208 15.3016 30.2208C19.3813 30.2208 22.8018 28.8745 25.3019 26.5668L20.3979 22.7617C19.0517 23.6683 17.3346 24.2178 15.3016 24.2178C11.3729 24.2178 8.03496 21.5667 6.83977 17.9951L6.83359 17.9863Z" fill="#34A853"/>
<path d="M1.81272 8.33789C0.782515 10.3709 0.191895 12.6649 0.191895 15.11C0.191895 17.5551 0.782515 19.8492 1.81272 21.8822C1.81272 21.8958 6.84047 17.9809 6.84047 17.9809C6.53827 17.0743 6.35964 16.1128 6.35964 15.1099C6.35964 14.107 6.53827 13.1455 6.84047 12.2388L1.81272 8.33789Z" fill="#FBBC05"/>
<path d="M15.3019 6.01671C17.5273 6.01671 19.5054 6.78595 21.0851 8.26955L25.4122 3.94251C22.7884 1.4974 19.3818 0 15.3019 0C9.39514 0 4.29885 3.39298 1.8125 8.33825L6.8401 12.2395C8.03513 8.6679 11.3732 6.01671 15.3019 6.01671Z" fill="#EA4335"/>
</svg>
