<svg width="156" height="158" viewBox="0 0 156 158" fill="none" xmlns="http://www.w3.org/2000/svg">
<path d="M84.1977 0C79.4051 19.9737 75.0608 39.9094 72.4404 59.7349C73.7506 59.4246 75.0952 59.2866 76.5089 59.2866C78.8535 59.2866 81.1291 59.7004 83.2668 60.4934C84.7494 40.8059 87.025 20.915 92.0589 0.758538L84.1977 0ZM63.6137 2.97554L51.4082 5.84764C52.6149 11.4953 54.0631 17.1292 55.7181 22.7561L68.9925 41.0472C69.5441 37.8062 70.1648 34.5997 70.7854 31.3587C68.0271 22.0252 65.4756 12.5814 63.6137 2.97554ZM108.609 6.17519C102.092 14.7053 96.9549 23.625 92.3347 32.7378C91.6452 37.9097 91.059 43.047 90.5418 48.2534C92.8519 46.2191 95.1275 44.1848 97.3687 42.1506C101.851 31.1173 107.333 20.1116 115.746 9.35415L108.609 6.17519ZM40.0301 11.8228L33.5825 17.0016L64.3378 63.6655C64.786 63.2862 65.2343 62.9414 65.717 62.5621C66.2686 58.2867 66.8548 54.0114 67.5099 49.736L40.0301 11.8228ZM129.607 19.6254C117.298 32.6688 103.747 45.0468 89.7488 57.2179L89.2316 64.1137C90.7142 65.4239 92.0244 66.9755 93.0588 68.6994C108.057 54.563 122.711 40.5301 134.882 25.9799L129.607 19.6254ZM22.6665 31.1518L15.45 41.4265C22.47 47.3569 30.6518 52.5977 39.375 57.5627C44.8572 59.2522 50.3393 60.8037 55.856 62.2518L46.8225 48.4947C38.1338 43.3573 29.8243 37.8407 22.6665 31.1518ZM142.984 36.0823L117.642 53.8045C115.712 55.7698 113.712 57.6661 111.746 59.6314C116.125 59.528 120.504 59.3211 124.917 58.9763C132.055 53.6321 139.571 48.4258 147.949 43.4953L142.984 36.0823ZM8.13015 52.977L6.11313 60.9416C21.5528 67.9409 37.72 73.492 54.0975 78.6983C55.1664 77.9398 56.2352 77.2157 57.3041 76.4917C57.5799 74.0092 58.304 71.7336 59.4073 69.5959C41.9265 65.1481 24.7214 59.9417 8.13015 52.977ZM153.397 60.8037C137.054 64.7343 120.952 65.9411 105.161 65.9066C101.954 68.9752 98.7478 72.0094 95.5068 75.078L95.6102 75.5952C96.024 75.871 96.4033 76.1124 96.817 76.3537C116.78 76.0434 136.123 73.6989 155.155 70.3199L153.397 60.8037ZM76.5089 65.5273C69.2338 65.5273 63.4069 71.3888 63.4069 78.6983C63.4069 86.0079 69.2338 91.8348 76.5089 91.8348C83.784 91.8348 89.5764 86.0079 89.5764 78.6983C89.5764 71.3888 83.784 65.5273 76.5089 65.5273ZM1.44122 69.1476L0 78.2156L20.5391 81.0429C25.0317 80.2843 29.4795 79.4913 33.8584 78.6294C26.5488 76.0779 19.2944 73.3885 12.147 70.3889L1.44122 69.1476ZM126.745 80.7671C120.263 81.4566 113.746 81.9738 107.195 82.3186C113.781 85.801 120.676 89.042 127.779 92.1796L151.156 97.2825L152.225 85.2838L126.745 80.7671ZM45.7881 82.6289C31.8931 85.4562 17.7429 88.18 2.12046 89.9729L3.15483 101.799L26.342 96.6964C33.5136 92.3175 40.5818 87.8008 47.4776 83.1806C46.9259 83.0082 46.3398 82.8013 45.7881 82.6289ZM95.4379 82.7668C94.5414 86.6974 92.5071 90.2143 89.6799 92.8692C107.988 103.006 129.882 110.074 151.397 117.763L154.362 109.902C133.985 101.765 113.505 93.6277 95.4379 82.7668ZM57.8213 83.6633C41.3748 94.9379 24.3766 105.695 6.18898 115.315L10.7506 122.176C27.4798 114.315 43.3401 105.695 58.4764 96.386L62.0277 91.5245C60.0624 89.2834 58.5798 86.6285 57.8213 83.6633ZM82.8875 96.9722C80.8877 97.7307 78.7155 98.11 76.5089 98.11C74.9229 98.11 73.4058 97.9031 71.9921 97.5583L79.543 158L87.6456 156.621L82.8875 96.9722ZM65.6135 97.1791L30.1002 146.277L36.927 150.932L67.5099 112.384L65.6135 97.1791ZM89.404 99.8684L90.0247 107.695C98.2651 122.418 106.85 137.002 116.573 151.139L126.676 145.657C116.194 132.141 107.23 118.349 98.7478 104.454C95.5758 103.006 92.4382 101.489 89.404 99.8684ZM108.816 108.833C110.057 110.867 111.367 112.867 112.643 114.901C121.159 122.9 129.434 131.348 136.847 141.14L145.398 133.313C140.261 127.314 134.778 121.832 129.089 116.522C122.297 114.108 115.47 111.557 108.816 108.833ZM49.236 109.212C40.9955 113.936 32.5482 118.453 23.8595 122.797L14.6881 131.244L23.2733 139.14L38.9613 123.349L49.236 109.212ZM68.6132 121.142L59.2694 132.899L55.5801 153.794L64.6481 156.448L69.5097 128.245L68.6132 121.142ZM91.1969 122.487L91.4383 125.245L101.851 155.966L106.885 153.897L103.747 143.174C99.3685 136.347 95.231 129.417 91.1969 122.487Z" fill="black"/>
</svg>
